# xmcd
#
# Track frame offsets: 
#        150
#        12785
#        25592
#        37712
#        50085
#        62557
#        75797
#        88752
#        101375
#        114060
#        126030
#        136725
#        148185
#        160100
#        173957
#        184110
#        197720
#        211312
#        223825
#        238287
#        251652
#        265397
#        279407
#        293002
#
# Disc length: 4073 seconds
#
# Revision: 3
# Processed by: cddbd v1.5.2PL0 Copyright (c) Steve Scherf et al.
# Submitted via: ExactAudioCopy v0.99pb5
#
DISCID=4a0fe718
DTITLE=Floyd Dixon - His Complete Alladin Recordings [CD1]
DYEAR=1996
DGENRE=Blues
TTITLE0=Sad Journey
TTITLE1=She's Understanding
TTITLE2=Let's Dance
TTITLE3=We'll Be Together
TTITLE4=Rockin' At Home
TTITLE5=Pleasure Days
TTITLE6=Don't Cry Now Baby
TTITLE7=I'm So Worried
TTITLE8=Hamp's Gumbo
TTITLE9=Pretty Baby
TTITLE10=Sonny's Blues
TTITLE11=Sad Feeling
TTITLE12=I Want A Little Girl
TTITLE13=Married Woman
TTITLE14=Wino Blues
TTITLE15=Empty Stocking Blues
TTITLE16=Walkin' and Talkin' Blues
TTITLE17=Girl Fifteen
TTITLE18=Hard Road Blues (Travelin' Man)
TTITLE19=Blues In My Heart
TTITLE20=San Francisco Blues
TTITLE21=Long Distance Telephone Blues
TTITLE22=Bad Neighborhood
TTITLE23=You Played Me For A Fool
EXTD=
EXTT0=
EXTT1=
EXTT2=
EXTT3=
EXTT4=
EXTT5=
EXTT6=
EXTT7=
EXTT8=
EXTT9=
EXTT10=
EXTT11=
EXTT12=
EXTT13=
EXTT14=
EXTT15=
EXTT16=
EXTT17=
EXTT18=
EXTT19=
EXTT20=
EXTT21=
EXTT22=
EXTT23=
PLAYORDER=
